<?xml version="1.0" standalone="no"?>
<!DOCTYPE svg PUBLIC "-//W3C//DTD SVG 20010904//EN"
 "http://www.w3.org/TR/2001/REC-SVG-20010904/DTD/svg10.dtd">
<svg version="1.0" xmlns="http://www.w3.org/2000/svg"
 width="192.000000pt" height="192.000000pt" viewBox="0 0 192.000000 192.000000"
 preserveAspectRatio="xMidYMid meet">
<metadata>
Created by potrace 1.11, written by Peter Selinger 2001-2013
</metadata>
<g transform="translate(0.000000,192.000000) scale(0.100000,-0.100000)"
fill="#000000" stroke="none">
<path d="M54 1841 c29 -42 88 -125 130 -186 42 -60 83 -118 91 -128 8 -9 15
-21 15 -25 1 -4 14 -23 30 -42 17 -19 30 -40 30 -46 0 -7 4 -14 8 -16 5 -1 55
-69 111 -150 l103 -147 22 27 c21 25 46 61 158 222 24 36 60 86 78 112 l33 46
-23 36 c-12 20 -27 42 -33 49 -7 7 -16 20 -22 29 -5 9 -54 79 -108 156 l-98
139 -289 1 -289 0 53 -77z"/>
<path d="M1319 1881 c-13 -19 -63 -92 -112 -161 -48 -69 -93 -133 -100 -144
-6 -10 -21 -30 -32 -44 -10 -14 -46 -65 -80 -113 -51 -75 -169 -243 -239 -344
-12 -16 -24 -31 -28 -33 -5 -2 -8 -8 -8 -14 0 -9 -14 -28 -60 -85 -6 -7 -10
-14 -10 -17 0 -4 -127 -186 -147 -211 -5 -5 -22 -30 -39 -55 -16 -25 -125
-181 -242 -347 -117 -167 -212 -305 -212 -308 0 -3 129 -5 288 -5 l287 1 55
82 c30 45 58 87 63 92 5 6 124 175 265 377 141 202 370 528 507 725 138 196
267 382 288 412 21 31 43 63 50 71 14 18 91 130 100 146 5 9 -68 12 -281 12
l-288 -1 -25 -36z"/>
<path d="M1329 788 c-7 -13 -15 -25 -18 -28 -4 -3 -34 -44 -66 -92 -33 -48
-70 -102 -83 -120 -12 -18 -28 -41 -35 -52 -6 -10 -17 -24 -22 -30 -6 -6 -18
-23 -27 -37 -16 -25 -16 -28 9 -65 15 -22 29 -41 32 -44 3 -3 11 -12 16 -21
25 -39 111 -165 120 -175 6 -6 28 -36 49 -67 l39 -57 290 0 289 0 -34 48 c-19
26 -93 130 -163 232 -71 102 -135 191 -142 198 -7 7 -13 17 -13 21 0 4 -8 17
-17 29 -10 11 -58 80 -108 151 -49 72 -93 131 -97 131 -4 0 -13 -10 -19 -22z"/>
</g>
</svg>
